<svg height="640pt" viewBox="-70 0 640 640" width="640pt" xmlns="http://www.w3.org/2000/svg"><path d="m334.457031 0h-262.332031c-39.472656 0-72.125 32.484375-72.125 71.957031v496.085938c0 39.472656 32.652344 71.957031 72.125 71.957031h356.058594c39.472656 0 72.117187-32.484375 72.117187-71.957031v-394.074219zm0 0" fill="#00acea"/><path d="m335.269531.488281 165.199219 173.640625h-109.972656c-30.535156 0-55.226563-24.6875-55.226563-55.222656zm0 0" fill="#00efd1"/><g fill="#083863"><path d="m383.835938 511.675781h-267.371094c-8.929688 0-16.238282 7.308594-16.238282 16.242188 0 8.9375 7.308594 16.246093 16.238282 16.246093h267.535156c8.933594 0 16.242188-7.308593 16.242188-16.246093 0-8.933594-7.308594-16.242188-16.40625-16.242188zm0 0"/><path d="m238.296875 453.359375c3.085937 3.25 7.308594 5.199219 11.855469 5.199219 4.542968 0 8.769531-1.949219 11.859375-5.199219l95.023437-102.171875c6.171875-6.496094 5.683594-16.890625-.816406-22.902344-6.492188-6.171875-16.886719-5.6875-22.898438.8125l-66.921874 71.957032v-177.378907c0-8.933593-7.3125-16.246093-16.246094-16.246093-8.9375 0-16.246094 7.3125-16.246094 16.246093v177.378907l-66.921875-71.957032c-6.171875-6.5-16.40625-6.984375-22.902344-.8125-6.5 6.171875-6.988281 16.40625-.816406 22.902344zm0 0"/></g></svg>